<?xml version="1.0" encoding="UTF-8" standalone="no"?>
<!-- Created with Inkscape (http://www.inkscape.org/) -->

<svg
   width="98.932556mm"
   height="20.081068mm"
   viewBox="0 0 98.932558 20.081068"
   version="1.1"
   id="svg1"
   inkscape:version="1.4.2 (ebf0e94, 2025-05-08)"
   sodipodi:docname="TRUEFORMDrafting Logo III.svg"
   xml:space="preserve"
   xmlns:inkscape="http://www.inkscape.org/namespaces/inkscape"
   xmlns:sodipodi="http://sodipodi.sourceforge.net/DTD/sodipodi-0.dtd"
   xmlns="http://www.w3.org/2000/svg"
   xmlns:svg="http://www.w3.org/2000/svg"><sodipodi:namedview
     id="namedview1"
     pagecolor="#505050"
     bordercolor="#ffffff"
     borderopacity="1"
     inkscape:showpageshadow="0"
     inkscape:pageopacity="0"
     inkscape:pagecheckerboard="1"
     inkscape:deskcolor="#505050"
     inkscape:document-units="px"
     showborder="false"
     borderlayer="false"
     inkscape:zoom="1.8224781"
     inkscape:cx="119.61735"
     inkscape:cy="-6.3100895"
     inkscape:window-width="1920"
     inkscape:window-height="991"
     inkscape:window-x="-9"
     inkscape:window-y="-9"
     inkscape:window-maximized="1"
     inkscape:current-layer="layer1" /><defs
     id="defs1"><inkscape:path-effect
       effect="offset"
       id="path-effect17"
       is_visible="true"
       lpeversion="1.3"
       linejoin_type="miter"
       unit="mm"
       offset="0"
       miter_limit="4"
       attempt_force_join="false"
       update_on_knot_move="true" /><inkscape:path-effect
       effect="offset"
       id="path-effect16"
       is_visible="true"
       lpeversion="1.3"
       linejoin_type="miter"
       unit="mm"
       offset="0"
       miter_limit="4"
       attempt_force_join="false"
       update_on_knot_move="true" /><marker
       id="DistanceX"
       orient="auto"
       refX="0"
       refY="0"
       style="overflow:visible"><path
         d="M 3,-3 -3,3 M 0,-5 V 5"
         style="stroke:#000000;stroke-width:0.5"
         id="path1" /></marker><pattern
       id="Hatch"
       patternUnits="userSpaceOnUse"
       width="8"
       height="8"
       x="0"
       y="0"><path
         d="M8 4 l-4,4"
         stroke="#000000"
         stroke-width="0.25"
         linecap="square"
         id="path2" /><path
         d="M6 2 l-4,4"
         stroke="#000000"
         stroke-width="0.25"
         linecap="square"
         id="path3" /><path
         d="M4 0 l-4,4"
         stroke="#000000"
         stroke-width="0.25"
         linecap="square"
         id="path4" /></pattern><symbol
       id="*Model_Space" /><symbol
       id="*Paper_Space" /><symbol
       id="*Paper_Space0" /><marker
       id="DistanceX-3"
       orient="auto"
       refX="0"
       refY="0"
       style="overflow:visible"><path
         d="M 3,-3 -3,3 M 0,-5 V 5"
         style="stroke:#000000;stroke-width:0.5"
         id="path1-1" /></marker><pattern
       id="Hatch-2"
       patternUnits="userSpaceOnUse"
       width="8"
       height="8"
       x="0"
       y="0"><path
         d="M8 4 l-4,4"
         stroke="#000000"
         stroke-width="0.25"
         linecap="square"
         id="path2-3" /><path
         d="M6 2 l-4,4"
         stroke="#000000"
         stroke-width="0.25"
         linecap="square"
         id="path3-3" /><path
         d="M4 0 l-4,4"
         stroke="#000000"
         stroke-width="0.25"
         linecap="square"
         id="path4-4" /></pattern><symbol
       id="*Model_Space-1" /><symbol
       id="*Paper_Space-1" /><symbol
       id="*Paper_Space0-3" /><marker
       id="DistanceX-8"
       orient="auto"
       refX="0"
       refY="0"
       style="overflow:visible"><path
         d="M 3,-3 -3,3 M 0,-5 V 5"
         style="stroke:#000000;stroke-width:0.5"
         id="path1-6" /></marker><pattern
       id="Hatch-5"
       patternUnits="userSpaceOnUse"
       width="8"
       height="8"
       x="0"
       y="0"><path
         d="M8 4 l-4,4"
         stroke="#000000"
         stroke-width="0.25"
         linecap="square"
         id="path2-0" /><path
         d="M6 2 l-4,4"
         stroke="#000000"
         stroke-width="0.25"
         linecap="square"
         id="path3-2" /><path
         d="M4 0 l-4,4"
         stroke="#000000"
         stroke-width="0.25"
         linecap="square"
         id="path4-8" /></pattern><symbol
       id="*Model_Space-6" /><symbol
       id="*Paper_Space-0" /><symbol
       id="*Paper_Space0-2" /><marker
       id="DistanceX-38"
       orient="auto"
       refX="0"
       refY="0"
       style="overflow:visible"><path
         d="M 3,-3 -3,3 M 0,-5 V 5"
         style="stroke:#000000;stroke-width:0.5"
         id="path1-9" /></marker><pattern
       id="Hatch-3"
       patternUnits="userSpaceOnUse"
       width="8"
       height="8"
       x="0"
       y="0"><path
         d="M8 4 l-4,4"
         stroke="#000000"
         stroke-width="0.25"
         linecap="square"
         id="path2-4" /><path
         d="M6 2 l-4,4"
         stroke="#000000"
         stroke-width="0.25"
         linecap="square"
         id="path3-4" /><path
         d="M4 0 l-4,4"
         stroke="#000000"
         stroke-width="0.25"
         linecap="square"
         id="path4-6" /></pattern><symbol
       id="*Model_Space-0" /><symbol
       id="*Paper_Space-6" /><symbol
       id="*Paper_Space0-6" /><marker
       id="DistanceX-1"
       orient="auto"
       refX="0"
       refY="0"
       style="overflow:visible"><path
         d="M 3,-3 -3,3 M 0,-5 V 5"
         style="stroke:#000000;stroke-width:0.5"
         id="path1-8" /></marker><pattern
       id="Hatch-4"
       patternUnits="userSpaceOnUse"
       width="8"
       height="8"
       x="0"
       y="0"><path
         d="M8 4 l-4,4"
         stroke="#000000"
         stroke-width="0.25"
         linecap="square"
         id="path2-9" /><path
         d="M6 2 l-4,4"
         stroke="#000000"
         stroke-width="0.25"
         linecap="square"
         id="path3-6" /><path
         d="M4 0 l-4,4"
         stroke="#000000"
         stroke-width="0.25"
         linecap="square"
         id="path4-3" /></pattern><symbol
       id="*Model_Space-7" /><symbol
       id="*Paper_Space-8" /><symbol
       id="*Paper_Space0-8"><path
         style="fill:none;stroke:#000000;stroke-linecap:round"
         d="M 202.625,841.947 183.709,806.839"
         id="path5-2" /><path
         style="fill:none;stroke:#000000;stroke-linecap:round"
         d="M 276.709,979.44 219.01,872.355"
         id="path6-9" /><path
         style="fill:none;stroke:#000000;stroke-linecap:round"
         d="M 131.185,904.32 90.7084,979.44"
         id="path7-1" /><path
         style="fill:none;stroke:#000000;stroke-linecap:round"
         d="m 183.709,806.839 -24.852,46.122"
         id="path8-3" /><path
         d="m 276.70861,979.4401 0.59139,1.23889 0.52129,1.52405 0.29807,1.5307 0.0741,1.53373 -0.14997,1.53311 -0.37372,1.52885 -0.59659,1.52098 -0.81804,1.50949 -1.03755,1.49443 -1.2546,1.47581 -1.46868,1.4537 -1.67926,1.42815 -1.88587,1.39919 -2.08801,1.36693 -2.28519,1.33139 -2.47694,1.2928 -2.66284,1.251 -2.8424,1.2063 -3.01524,1.1588 -3.18091,1.1085 -3.33904,1.0555 -3.48925,1.0001 -3.63119,0.9422 -3.76452,0.8822 -3.8889,0.8201 -4.00408,0.756 -4.10975,0.6901 -4.20568,0.6226 -4.29162,0.5536 -4.3674,0.4833 -4.4328,0.4118 -4.48771,0.3394 -4.53195,0.2662 -4.56547,0.1923 -4.58813,0.118 -4.59993,0.043 -4.60081,-0.031 -4.59077,-0.106 -4.56986,-0.1803 -4.5381,-0.2543 -4.49558,-0.3276 -4.44239,-0.4002 -4.37867,-0.4718 -4.30456,-0.5424 -4.22024,-0.6115 -4.12591,-0.6793 -4.0218,-0.7455 -3.90815,-0.8098 -3.78522,-0.8723 -3.65332,-0.9327 -3.51275,-0.9909 -3.36386,-1.0468 -3.20698,-1.1 -3.04249,-1.1509 -2.8708,-1.1988 -2.69228,-1.244 -2.50739,-1.2862 -2.31654,-1.3254 -2.120212,-1.36141 -1.918842,-1.39421 -1.712925,-1.4237 -1.502944,-1.4498 -1.2894,-1.47248 -1.072796,-1.49166 -0.853648,-1.5073 -0.632475,-1.51936 -0.409802,-1.52783 -0.186158,-1.53267 0.03793,-1.53387 0.261926,-1.53143 0.485301,-1.52537 0.690678,-1.48451"
         style="fill:none;stroke:#000000;stroke-linecap:round"
         id="path9-5" /><path
         d="m 219.77922,873.85587 c -0.58333,-1.20239 -1.2574,-2.41972 -2.00504,-3.65704 -0.74764,-1.23733 -1.56925,-2.49438 -2.45473,-3.78199 -0.88548,-1.28761 -1.81254,-2.57297 -2.75981,-3.86545 -0.94727,-1.29248 -1.91664,-2.59298 -2.88379,-3.92656 -0.48358,-0.66679 -0.96065,-1.3344 -1.42051,-1.99783 -0.45985,-0.66343 -0.90418,-1.325 -1.32653,-1.98723 -0.42236,-0.66221 -0.82316,-1.32713 -1.18145,-1.96931 -0.35829,-0.64219 -0.6781,-1.26781 -0.95848,-1.87724 -0.14019,-0.30472 -0.27056,-0.60536 -0.39127,-0.90186 -0.12071,-0.29649 -0.23182,-0.58923 -0.33191,-0.87223 -0.20017,-0.56598 -0.35885,-1.0991 -0.48698,-1.60262 -0.12812,-0.50353 -0.2257,-0.97744 -0.30317,-1.42304 -0.0775,-0.44561 -0.13422,-0.85939 -0.18024,-1.23875 -0.0921,-0.75871 -0.14335,-1.38887 -0.22007,-1.89005 -0.0767,-0.50117 -0.17968,-0.87272 -0.35839,-1.07788 -0.0894,-0.10258 -0.1975,-0.1646 -0.33055,-0.18208 -0.13305,-0.0175 -0.29252,0.0103 -0.47935,0.087 -0.37365,0.15338 -0.8541,0.49714 -1.45905,1.04809 -0.60495,0.55096 -1.30307,1.28049 -2.07424,2.17051 -0.38559,0.44501 -0.7886,0.93 -1.19455,1.43939 -0.40595,0.50938 -0.81768,1.04635 -1.23114,1.6091 -0.41347,0.56274 -0.82869,1.15126 -1.24102,1.76517 -0.41233,0.61392 -0.82086,1.25224 -1.2137,1.90429 -0.7857,1.30411 -1.51858,2.67323 -2.14319,4.12089 -0.31231,0.72383 -0.59711,1.46759 -0.8434,2.23539 -0.24629,0.76779 -0.45085,1.55162 -0.60072,2.34336 -0.14987,0.79174 -0.24594,1.5942 -0.27722,2.40876 -0.0156,0.40729 -0.0149,0.81961 0.003,1.22834 0.0179,0.40873 0.0528,0.81449 0.10447,1.21731 0.1033,0.80564 0.2737,1.5995 0.50818,2.38229 0.23447,0.78279 0.53607,1.55946 0.88492,2.30168 0.69771,1.48444 1.58481,2.85626 2.60258,4.14988 1.01778,1.29361 2.13521,2.46918 3.31253,3.55555 0.58865,0.54318 1.1932,1.06402 1.81144,1.56444 0.61823,0.50042 1.25294,0.9823 1.89221,1.43913 1.27855,0.91366 2.57289,1.72787 3.87385,2.45033 0.65049,0.36123 1.30271,0.69927 1.95588,1.01365 0.65318,0.31438 1.30907,0.60561 1.953,0.8672 1.28785,0.52319 2.53925,0.93474 3.74589,1.22774 0.60331,0.1465 1.19787,0.26347 1.77398,0.34715 0.57611,0.0837 1.12805,0.13351 1.6552,0.14943 1.05432,0.0318 2.01042,-0.0707 2.8546,-0.32196 0.4221,-0.12565 0.815,-0.28955 1.16605,-0.48674 0.35105,-0.19719 0.66387,-0.42852 0.93875,-0.69371 0.27487,-0.26519 0.5118,-0.56423 0.70993,-0.89798 0.19814,-0.33375 0.35592,-0.7011 0.47157,-1.09234 0.23131,-0.78247 0.30072,-1.67106 0.21938,-2.65415 -0.0813,-0.98309 -0.31002,-2.03181 -0.66452,-3.14118 -0.35451,-1.10936 -0.83908,-2.28447 -1.42241,-3.48687 z"
         style="fill:none;stroke:#000000;stroke-linecap:round"
         id="path10-9" /><path
         d="m 131.19821,904.32708 c 0.0218,-0.0498 0.0435,-0.0995 0.0758,-0.1606 0.11761,-0.22242 0.37491,-0.59466 0.65725,-0.9939 0.23102,-0.32667 0.47881,-0.67142 0.75596,-1.04815 0.27934,-0.3797 0.58852,-0.7919 0.91745,-1.22617 0.33516,-0.44253 0.69083,-0.90798 1.06448,-1.39421 0.37536,-0.48846 0.76886,-0.99788 1.17698,-1.52513 0.33048,-0.42693 0.67055,-0.86556 1.01896,-1.31494 0.34912,-0.4503 0.70663,-0.91141 1.07134,-1.3825 0.36674,-0.47373 0.74077,-0.95756 1.12106,-1.45095 0.38091,-0.49421 0.7681,-0.998 1.16062,-1.51102 0.40002,-0.52281 0.80557,-1.05522 1.21571,-1.59703 0.41078,-0.54266 0.82617,-1.09476 1.2452,-1.65632 0.42105,-0.56426 0.84578,-1.13808 1.27318,-1.72169 0.42812,-0.58459 0.85892,-1.179 1.29128,-1.78372 0.43897,-0.61397 0.87954,-1.23857 1.3203,-1.87453 0.44173,-0.63738 0.88366,-1.28617 1.32402,-1.94746 0.44397,-0.66672 0.88636,-1.34614 1.32475,-2.03963 0.44001,-0.69606 0.87599,-1.4063 1.30485,-2.13233 0.61749,-1.04537 1.22023,-2.12348 1.7942,-3.23932 0.58544,-1.13815 1.14095,-2.31556 1.64408,-3.52238 0.17763,-0.42607 0.34873,-0.85581 0.51256,-1.28877 0.33267,-0.8792 0.63533,-1.7717 0.90313,-2.66158 0.13646,-0.45341 0.26386,-0.90614 0.3828,-1.35618 0.11498,-0.43508 0.22204,-0.86764 0.32197,-1.29597 0.20334,-0.87163 0.3771,-1.72571 0.53361,-2.54653 0.0797,-0.41784 0.15488,-0.82707 0.22743,-1.22785 0.18277,-1.00954 0.34875,-1.96553 0.53346,-2.84431 0.18862,-0.89746 0.39678,-1.7144 0.62011,-2.49194 0.22286,-0.7759 0.46083,-1.51256 0.81799,-2.03922 0.0196,-0.0288 0.0395,-0.057 0.0594,-0.0852"
         style="fill:none;stroke:#000000;stroke-linecap:round"
         id="path11-8" /><path
         d="m 217.11513,955.546 4.26367,0.5771 4.17431,0.64562 4.07507,0.71259 3.96615,0.77789 3.84782,0.84133 3.72038,0.90277 3.5841,0.96209 3.43932,1.01911 3.28639,1.07373 3.12566,1.12578 2.95753,1.17518 2.78236,1.22178 2.60061,1.26548 2.41268,1.30619 2.21903,1.3438 2.02013,1.37822 1.81642,1.40937 1.60841,1.43718 1.39659,1.46157 1.18145,1.48251 0.9635,1.49992 0.1519,0.27489"
         style="fill:none;stroke:#000000;stroke-dasharray:4.8, 2.4"
         id="path12-4" /><path
         d="m 90.708422,979.4401 0.01685,-0.0312 0.928071,-1.5024 1.146415,-1.48556 1.362041,-1.46519 1.574436,-1.44136 1.783097,-1.41408 1.987528,-1.38348 2.18724,-1.34958 2.38178,-1.31247 2.57065,-1.27227 2.75344,-1.22904 2.92968,-1.1829 3.099,-1.13395 3.26094,-1.08231 3.41516,-1.0281 3.56128,-0.97146 3.69894,-0.91251 3.82785,-0.85139 3.94766,-0.78826 4.05812,-0.72327 4.15895,-0.65654 4.24991,-0.58827 4.33079,-0.51859 4.40141,-0.4477 4.46158,-0.37574 4.51116,-0.30288 4.55006,-0.22931 4.57816,-0.15519 4.59539,-0.0807 4.60173,-0.006 4.59716,0.0687 4.58168,0.14318 4.55533,0.21737 4.51817,0.29104 4.47031,0.36402 4.41184,0.43614 4.3429,0.50722"
         style="fill:none;stroke:#000000;stroke-dasharray:4.8, 2.4"
         id="path13" /><path
         d="m 138.5297,897.79877 c -0.83376,0.86045 -1.66753,1.72091 -2.44674,2.50834 -0.26424,0.26703 -0.52221,0.52566 -0.77375,0.77626 -0.37051,0.36913 -0.72707,0.72083 -1.06463,1.04938 -0.5767,0.56132 -1.09794,1.0551 -1.5376,1.45548 -0.15396,0.14021 -0.29792,0.26897 -0.43156,0.38598 -0.27267,0.23876 -0.50238,0.42862 -0.68656,0.56805 -0.0941,0.0713 -0.17637,0.12935 -0.24665,0.17426 -0.12613,0.0806 -0.21372,0.11876 -0.2714,0.12438 -0.0589,0.006 -0.0866,-0.0224 -0.0674,-0.10113 0.0224,-0.0918 0.10859,-0.25223 0.19478,-0.41269"
         style="fill:none;stroke:#000000;stroke-dasharray:4.8, 2.4"
         id="path14" /><path
         d="m 158.8681,852.96753 c 0.32983,-0.53433 0.65966,-1.06866 1.04591,-1.50152 0.42291,-0.47396 0.91346,-0.82629 1.44357,-1.08527 0.54575,-0.26663 1.13344,-0.43432 1.74742,-0.48895 0.59287,-0.0528 1.21026,-8e-5 1.82163,0.16021 0.6292,0.16497 1.25203,0.44393 1.82049,0.83973 0.30946,0.21547 0.60281,0.46557 0.8706,0.75059 0.45472,0.48397 0.83574,1.06863 1.10101,1.73478 0.15642,0.39281 0.2726,0.81396 0.34514,1.25731 0.1239,0.75733 0.12047,1.57944 0.004,2.43023 -0.11913,0.8711 -0.35665,1.77226 -0.67792,2.68345 -0.32775,0.92957 -0.74267,1.86958 -1.2171,2.81192 -0.22117,0.43929 -0.45526,0.87909 -0.7003,1.3194 -0.73961,1.32899 -1.5789,2.66259 -2.47969,3.99678 -0.61258,0.90731 -1.2536,1.8149 -1.91727,2.72371 -0.66638,0.91253 -1.35558,1.82631 -2.06283,2.74134 -0.48672,0.62971 -0.98198,1.26002 -1.48478,1.89104 -0.50357,0.63201 -1.01471,1.26474 -1.53248,1.89818 -0.52022,0.63642 -1.04714,1.27357 -1.58002,1.91139 -0.53373,0.63885 -1.07343,1.27839 -1.61844,1.91848 -0.55596,0.65296 -1.11744,1.30651 -1.68377,1.96043 -0.56746,0.65521 -1.13979,1.31078 -1.71633,1.96638 -0.58048,0.66007 -1.16523,1.32017 -1.75347,1.97971 -0.58985,0.66133 -1.1832,1.3221 -1.77927,1.98165 -0.6807,0.75318 -1.36496,1.50478 -2.05049,2.25234 -0.68945,0.75181 -1.38018,1.49954 -2.07118,2.24234 -1.06438,1.14418 -2.12938,2.27668 -3.16807,3.36481 -0.35028,0.36696 -0.69758,0.72887 -1.04487,1.09078"
         style="fill:none;stroke:#000000;stroke-dasharray:4.8, 2.4"
         id="path15" /><path
         style="fill:none;stroke:#000000;stroke-dasharray:4.8, 2.4"
         d="m 131.112,904.834 86.693,-18.385"
         id="path16" /><path
         style="fill:none;stroke:#000000;stroke-dasharray:4.8, 2.4"
         d="m 201.925,841.621 -39.414,8.359"
         id="path17" /><path
         style="fill:none;stroke:#000000;stroke-dasharray:4.8, 2.4"
         d="M 278.197,985.008 H 183.709"
         id="path18" /><path
         style="fill:none;stroke:#000000;stroke-dasharray:4.8, 2.4"
         d="M 183.709,806.839 V 985.008"
         id="path19" /><path
         style="fill:none;stroke:#000000;stroke-dasharray:4.8, 2.4"
         d="m 167.005,1016.01 16.704,-31.002"
         id="path20" /></symbol><symbol
       id="*Paper_Space1"><path
         style="fill:none;stroke:#000000;stroke-linecap:round"
         d="m 273.921,980.575 -93,-172.601"
         id="path21" /><path
         style="fill:none;stroke:#000000;stroke-linecap:round"
         d="M 180.921,807.974 87.9205,980.575"
         id="path22" /><path
         d="m 88.884502,993.27159 c 3.269929,-5.80833 6.577442,-11.49076 9.962706,-17.00406 1.692632,-2.75665 3.405142,-5.47051 5.148102,-8.12994 1.74295,-2.65944 3.51592,-5.26492 5.33801,-7.79517 0.91105,-1.26512 1.83454,-2.51125 2.77446,-3.73391 0.93993,-1.22267 1.89322,-2.41783 2.86118,-3.57471 0.96797,-1.15687 1.95141,-2.27673 2.95644,-3.3487 1.00503,-1.07198 2.03149,-2.09636 3.0892,-3.0555 1.05771,-0.95914 2.14781,-1.85487 3.28313,-2.65212 1.13533,-0.79725 2.29773,-1.48391 3.50236,-2.0085 0.60232,-0.2623 1.21909,-0.48443 1.83745,-0.65239 0.61837,-0.16796 1.23875,-0.28256 1.86165,-0.33615 0.6229,-0.0536 1.24833,-0.0462 1.87684,0.0315 0.31426,0.0388 0.63085,0.0957 0.9443,0.1705 0.31346,0.0748 0.62256,0.16706 0.92743,0.27635 0.60974,0.21858 1.20254,0.50529 1.77919,0.8567 0.28832,0.1757 0.57261,0.36758 0.85295,0.57521 0.28034,0.20762 0.55788,0.43205 0.82812,0.66868 1.08097,0.9465 2.04783,2.08233 2.93501,3.34772 0.44359,0.6327 0.86857,1.30138 1.27073,1.98859 0.40215,0.68721 0.78217,1.39333 1.14406,2.11474 0.7238,1.44281 1.37575,2.94619 1.97585,4.49193 0.60011,1.54573 1.14899,3.13752 1.65497,4.75395 0.50599,1.61644 0.96636,3.24833 1.39136,4.89171 0.85002,3.28677 1.56016,6.61891 2.17313,9.97981 0.61297,3.36091 1.12741,6.75111 1.5641,10.16243 0.4367,3.41132 0.79519,6.84394 1.08682,10.29332 0.29163,3.44938 0.51633,6.91832 0.68021,10.39422 0.16387,3.4759 0.26691,6.9572 0.31369,10.4431"
         style="fill:none;stroke:#000000;stroke-linecap:round"
         id="path23" /><path
         d="m 87.920522,980.57507 a 11.579166,11.579166 0 0 0 0.96398,12.69652"
         style="fill:none;stroke:#000000;stroke-linecap:round"
         id="path24" /><path
         d="m 273.92071,980.57507 0.13976,0.26594 0.67001,1.53462 0.44258,1.54376 0.21409,1.54915 -0.0149,1.55078 -0.24392,1.54866 -0.47231,1.54278 -0.69956,1.53316 -0.92511,1.51983 -1.14842,1.5028 -1.36894,1.48214 -1.58615,1.45788 -1.79951,1.43009 -2.0085,1.39884 -2.21263,1.3642 -2.4114,1.3262 -2.60431,1.285 -2.79092,1.2408 -2.97076,1.1935 -3.14339,1.1432 -3.3084,1.0903 -3.4654,1.0348 -3.61399,0.9766 -3.75383,0.9161 -3.88456,0.8534 -4.00586,0.7886 -4.11747,0.722 -4.21909,0.6535 -4.31048,0.5835 -4.39143,0.5121 -4.46171,0.4394 -4.5212,0.3657 -4.56971,0.291 -4.60715,0.2157 -4.63341,0.1399 -4.64846,0.064 -4.65222,-0.013 -4.64471,-0.089 -4.62593,-0.1651 -4.59595,-0.2408 -4.55482,-0.3159 -4.50265,-0.3903"
         style="fill:none;stroke:#000000;stroke-linecap:round"
         id="path25" /><path
         d="m 154.89795,1016.4209 -0.22877,-1.3429 -0.45496,-1.3364 -0.67971,-1.3258 -0.9023,-1.311 -1.12206,-1.292 -1.33824,-1.2689 -1.5502,-1.2418 -1.75725,-1.2107 -1.95874,-1.176 -2.15403,-1.1373 -2.34249,-1.0952 -2.52356,-1.0495 -2.69663,-1.0006 -2.86116,-0.94837 -3.01664,-0.89329 -3.16257,-0.83533 -3.29849,-0.77472 -3.42398,-0.71166 -3.53862,-0.64635 -3.64206,-0.579 -3.73399,-0.50981 -3.81408,-0.43901 -3.88212,-0.36681 -3.937853,-0.29347 -3.981134,-0.21918 -4.011811,-0.14421"
         style="fill:none;stroke:#000000;stroke-linecap:round"
         id="path26" /><path
         d="m 87.920522,980.57507 0.684689,-1.14775 1.103571,-1.50653 1.3247,-1.4866 1.542617,-1.46306 1.756795,-1.43598 1.966714,-1.40541 2.171864,-1.37144 2.371748,-1.33414 2.56589,-1.29361 2.7538,-1.24994 2.93503,-1.20324 3.10917,-1.15363 3.27574,-1.10122 3.43439,-1.04613 3.58471,-0.98852 3.72633,-0.9285 3.85893,-0.86624 3.98217,-0.80187 4.09575,-0.73556 4.1994,-0.66746 4.29287,-0.59776 4.37595,-0.5266 4.4484,-0.45415 4.51007,-0.38062 4.56081,-0.30617 4.60049,-0.23095 4.62902,-0.1552 4.64633,-0.0791 4.65237,-0.003 4.64713,0.0736 4.63063,0.14978 4.6029,0.22556 4.56401,0.30082 4.51405,0.37534 4.45316,0.44894 4.38147,0.52147 4.29915,0.59272 4.20641,0.66255 4.10348,0.73076 3.9906,0.7972 3.86803,0.86171 3.7361,0.92413 3.59511,0.98431 3.44539,1.0421 3.28734,1.09738 3.1213,1.14998 2.94771,1.1998 2.76695,1.2467 2.57951,1.2906 2.3858,1.33136 2.18631,1.36888 1.98151,1.4031 1.77193,1.43391 1.55803,1.46125 1.34036,1.48503 1.11945,1.50524 0.75605,1.25583"
         style="fill:none;stroke:#000000;stroke-dasharray:4.8, 2.4"
         id="path27" /><path
         style="fill:none;stroke:#000000;stroke-dasharray:4.8, 2.4"
         d="M 275.409,986.143 H 180.921"
         id="path28" /><path
         style="fill:none;stroke:#000000;stroke-dasharray:4.8, 2.4"
         d="M 180.921,807.974 V 986.143"
         id="path29" /><path
         style="fill:none;stroke:#000000;stroke-dasharray:4.8, 2.4"
         d="M 180.921,986.143 163.595,1017.1"
         id="path30" /></symbol><marker
       id="DistanceX-0"
       orient="auto"
       refX="0"
       refY="0"
       style="overflow:visible"><path
         d="M 3,-3 -3,3 M 0,-5 V 5"
         style="stroke:#000000;stroke-width:0.5"
         id="path1-7" /></marker><pattern
       id="Hatch-6"
       patternUnits="userSpaceOnUse"
       width="8"
       height="8"
       x="0"
       y="0"><path
         d="M8 4 l-4,4"
         stroke="#000000"
         stroke-width="0.25"
         linecap="square"
         id="path2-36" /><path
         d="M6 2 l-4,4"
         stroke="#000000"
         stroke-width="0.25"
         linecap="square"
         id="path3-1" /><path
         d="M4 0 l-4,4"
         stroke="#000000"
         stroke-width="0.25"
         linecap="square"
         id="path4-5" /></pattern><symbol
       id="*Model_Space-4" /><symbol
       id="*Paper_Space-2" /><symbol
       id="*Paper_Space0-0" /><marker
       id="DistanceX-35"
       orient="auto"
       refX="0"
       refY="0"
       style="overflow:visible"><path
         d="M 3,-3 -3,3 M 0,-5 V 5"
         style="stroke:#000000;stroke-width:0.5"
         id="path1-99" /></marker><pattern
       id="Hatch-8"
       patternUnits="userSpaceOnUse"
       width="8"
       height="8"
       x="0"
       y="0"><path
         d="M8 4 l-4,4"
         stroke="#000000"
         stroke-width="0.25"
         linecap="square"
         id="path2-1" /><path
         d="M6 2 l-4,4"
         stroke="#000000"
         stroke-width="0.25"
         linecap="square"
         id="path3-8" /><path
         d="M4 0 l-4,4"
         stroke="#000000"
         stroke-width="0.25"
         linecap="square"
         id="path4-2" /></pattern><symbol
       id="*Model_Space-66" /><symbol
       id="*Paper_Space-03" /><symbol
       id="*Paper_Space0-80" /></defs><g
     inkscape:label="Layer 1"
     inkscape:groupmode="layer"
     id="layer1"
     transform="translate(-48.90284,-142.36545)"><g
       id="g16"
       transform="matrix(0.06394813,0,0,0.06548722,48.371329,92.585974)"><g
         inkscape:label="0"
         id="g14"><path
           style="baseline-shift:baseline;display:inline;overflow:visible;opacity:1;vector-effect:none;stroke-linecap:round;enable-background:accumulate;stop-color:#000000;stop-opacity:1"
           d="m 148.84961,760.40234 a 6.2189002,6.2189002 0 0 0 -4.73633,0.48243 6.2189002,6.2189002 0 0 0 -2.52344,8.42382 l 130.5,242.19921 a 6.2189002,6.2189002 0 0 0 8.42578,2.5254 6.2189002,6.2189002 0 0 0 2.5254,-8.4238 L 152.53906,763.4082 a 6.2189002,6.2189002 0 0 0 -3.68945,-3.00586 z"
           id="path5" /><path
           style="baseline-shift:baseline;display:inline;overflow:visible;opacity:1;vector-effect:none;stroke-linecap:round;enable-background:accumulate;stop-color:#000000;stop-opacity:1"
           d="m 145.2793,760.40234 a 6.2189002,6.2189002 0 0 0 -3.68946,3.00586 L 11.087891,1005.6094 a 6.2189002,6.2189002 0 0 0 2.52539,8.4238 6.2189002,6.2189002 0 0 0 8.423828,-2.5254 L 152.53906,769.30859 a 6.2189002,6.2189002 0 0 0 -2.52539,-8.42382 6.2189002,6.2189002 0 0 0 -4.73437,-0.48243 z"
           id="path6" /><path
           style="baseline-shift:baseline;display:inline;overflow:visible;opacity:1;vector-effect:none;stroke-linecap:round;enable-background:accumulate;stop-color:#000000;stop-opacity:1"
           d="m 77.179687,946.80273 c -1.276342,0.10996 -2.517053,0.34228 -3.708984,0.66602 -1.196754,0.32505 -2.338,0.73943 -3.429687,1.21484 -2.168978,0.94457 -4.153288,2.13073 -6.00586,3.43164 -1.853772,1.30177 -3.578837,2.7231 -5.210937,4.20313 -1.633361,1.48113 -3.190096,3.03725 -4.69336,4.64062 h -0.002 c -1.503877,1.60407 -2.959731,3.26441 -4.380859,4.96289 -1.421494,1.69891 -2.812028,3.44283 -4.175781,5.2168 -1.363721,1.77395 -2.698414,3.57353 -4.009766,5.39453 -2.621991,3.64101 -5.159665,7.37262 -7.644531,11.16407 -2.485301,3.79212 -4.920717,7.6513 -7.322266,11.5625 -4.80225,7.82103 -9.482268,15.86273 -14.099609,24.06443 a 6.2189002,6.2189002 0 0 0 2.36914,8.4707 6.2189002,6.2189002 0 0 0 8.46875,-2.3691 c 4.559661,-8.0993 9.162865,-16.0043 13.861328,-23.6563 2.348796,-3.8253 4.718739,-7.58235 7.125,-11.25388 2.406733,-3.67223 4.844249,-7.25282 7.335938,-10.71289 1.245488,-1.72954 2.503184,-3.42653 3.777344,-5.08398 1.274147,-1.65741 2.558429,-3.26858 3.853515,-4.81641 1.295453,-1.54827 2.599294,-3.0311 3.916016,-4.43554 1.317336,-1.40507 2.641463,-2.72488 3.976562,-3.93555 1.33634,-1.21183 2.669466,-2.30257 4.001954,-3.23828 1.333708,-0.93656 2.612436,-1.67736 3.824218,-2.20508 0.598713,-0.26073 1.187897,-0.47088 1.726563,-0.61719 0.542881,-0.14745 1.044537,-0.23681 1.515625,-0.27734 0.470633,-0.0405 0.905084,-0.0318 1.335937,0.0215 0.214151,0.0265 0.433167,0.0648 0.644532,0.11524 0.21458,0.0512 0.428903,0.11536 0.646484,0.19336 0.434818,0.15588 0.883961,0.36848 1.359375,0.6582 0.237898,0.14499 0.482394,0.30896 0.732422,0.49414 0.248351,0.18393 0.507682,0.39525 0.765625,0.62109 1.044119,0.91441 2.093504,2.11943 3.123047,3.5879 0.51191,0.73015 1.019896,1.52757 1.507812,2.36132 0.488944,0.83553 0.959324,1.70876 1.414063,2.61524 0.910415,1.81483 1.750669,3.74496 2.535156,5.76562 0.783806,2.0189 1.508897,4.12193 2.183594,6.27735 0.674814,2.15577 1.293498,4.34615 1.867187,6.56445 1.147889,4.43858 2.114911,8.96664 2.953125,13.56243 0.837891,4.5942 1.541991,9.2421 2.142571,13.9336 0.6005,4.691 1.09571,9.4188 1.49805,14.1778 0.40233,4.7587 0.71292,9.5506 0.93945,14.3554 0.22653,4.8049 0.36886,9.6207 0.4336,14.4454 a 6.2189002,6.2189002 0 0 0 6.30078,6.1347 6.2189002,6.2189002 0 0 0 6.13477,-6.3027 c -0.0665,-4.9586 -0.21194,-9.9132 -0.44532,-14.8633 -0.23338,-4.9502 -0.55457,-9.8945 -0.9707,-14.8164 -0.41608,-4.9214 -0.92767,-9.8261 -1.55273,-14.709 -0.62502,-4.8823 -1.3637,-9.7497 -2.2461,-14.58785 -0.88208,-4.8364 -1.90883,-9.65965 -3.14648,-14.44531 -0.61909,-2.39386 -1.29189,-4.78336 -2.03711,-7.16407 -0.74534,-2.38108 -1.56055,-4.74525 -2.46094,-7.06445 -0.89969,-2.3174 -1.89083,-4.60741 -3.01172,-6.8418 -0.56092,-1.11814 -1.155241,-2.22526 -1.794918,-3.31836 -0.640743,-1.0949 -1.325584,-2.17519 -2.058593,-3.2207 -1.459958,-2.08238 -3.125934,-4.06481 -5.115235,-5.80664 -0.500497,-0.43822 -1.018212,-0.85711 -1.55664,-1.25586 -0.536732,-0.39752 -1.090848,-0.77294 -1.66211,-1.12109 -1.142925,-0.6965 -2.358363,-1.28852 -3.634765,-1.7461 -0.637454,-0.22849 -1.29055,-0.42339 -1.955079,-0.58203 h -0.002 c -0.667665,-0.15927 -1.336706,-0.27872 -2.003906,-0.36133 -1.332365,-0.16482 -2.652752,-0.17823 -3.929687,-0.0684 z"
           id="path7" /><path
           style="baseline-shift:baseline;display:inline;overflow:visible;opacity:1;vector-effect:none;stroke-linecap:round;enable-background:accumulate;stop-color:#000000;stop-opacity:1"
           d="M 14.849609,1002.5801 A 6.2189002,6.2189002 0 0 0 11.125,1005.543 c -4.3446048,7.8335 -3.6083486,17.5469 1.869141,24.6347 a 6.2189002,6.2189002 0 0 0 8.724609,1.1192 6.2189002,6.2189002 0 0 0 1.117187,-8.7246 c -2.460094,-3.1834 -2.785245,-7.4779 -0.833984,-10.9961 a 6.2189002,6.2189002 0 0 0 -2.423828,-8.4551 6.2189002,6.2189002 0 0 0 -4.728516,-0.541 z"
           id="path8" /><path
           style="baseline-shift:baseline;display:inline;overflow:visible;opacity:1;vector-effect:none;stroke-linecap:round;enable-background:accumulate;stop-color:#000000;stop-opacity:1"
           d="m 279.41211,1002.6211 a 6.2189002,6.2189002 0 0 0 -4.73828,0.4336 6.2189002,6.2189002 0 0 0 -2.61328,8.3965 l 0.0918,0.1758 0.68555,1.5683 0.38477,1.3457 0.17773,1.2832 -0.0117,1.2617 -0.20312,1.2891 -0.41407,1.3535 -0.66015,1.4453 -0.9336,1.5352 -1.23632,1.6172 -1.55274,1.6797 -1.87305,1.7226 -2.19726,1.7461 -2.51367,1.752 -2.82617,1.7402 -3.12696,1.7207 -3.41797,1.6875 -3.69922,1.6445 -3.96875,1.5938 -4.2246,1.5371 -4.47071,1.4726 -4.69922,1.4024 -4.91992,1.3301 -5.12305,1.25 -5.31445,1.1679 -5.49023,1.0801 -5.6543,0.9922 -5.80078,0.8984 -5.93164,0.8028 -6.05078,0.7051 -6.15039,0.6074 -6.23828,0.5039 -6.30665,0.4023 -6.36132,0.2969 -6.39844,0.1934 -6.41992,0.088 -6.42578,-0.02 -6.41602,-0.123 -6.38867,-0.2285 -6.34375,-0.3321 -6.28711,-0.4355 -6.26367,-0.543 a 6.2189002,6.2189002 0 0 0 -6.73438,5.6582 6.2189002,6.2189002 0 0 0 5.66016,6.7324 l 6.37109,0.5528 6.49805,0.4511 6.55273,0.3438 6.59375,0.2344 6.61914,0.1269 6.63086,0.02 6.62696,-0.09 6.60351,-0.1992 6.56836,-0.3086 6.51758,-0.4141 6.45312,-0.5215 6.36915,-0.6289 6.27539,-0.7304 6.16406,-0.836 6.04101,-0.9355 5.90235,-1.0352 5.75195,-1.1308 5.58594,-1.2285 5.41211,-1.3204 5.22461,-1.4121 5.02343,-1.5 4.81641,-1.5859 4.59766,-1.6719 4.36914,-1.7558 4.13281,-1.8379 3.89063,-1.9199 3.64062,-2.002 3.38281,-2.0859 3.12305,-2.1758 2.85352,-2.2676 2.57812,-2.3691 2.28906,-2.4786 1.98828,-2.6015 1.66211,-2.7285 1.30274,-2.8594 0.91211,-2.9746 0.48047,-3.0567 0.0293,-3.0918 -0.42187,-3.0644 -0.85742,-2.9883 -1.19532,-2.7363 -0.30078,-0.5723 a 6.2189002,6.2189002 0 0 0 -3.6582,-3.0449 z"
           id="path9" /><path
           style="baseline-shift:baseline;display:inline;overflow:visible;opacity:1;vector-effect:none;stroke-linecap:round;enable-background:accumulate;stop-color:#000000;stop-opacity:1"
           d="m 18.138672,1020.1602 a 6.2189002,6.2189002 0 0 0 -6.4375,5.9921 6.2189002,6.2189002 0 0 0 5.990234,6.4375 l 5.570313,0.2012 5.466797,0.3008 5.404296,0.4023 5.324219,0.5039 5.222656,0.5997 5.107422,0.6972 4.972657,0.791 4.820312,0.8809 4.652344,0.9668 4.46875,1.0488 4.265625,1.127 4.048828,1.1992 3.814453,1.2656 3.568359,1.3223 3.306641,1.375 3.029297,1.416 2.738281,1.4473 2.435547,1.4609 2.119141,1.4609 1.798828,1.4414 1.470708,1.3946 1.14648,1.3203 0.83984,1.2207 0.56446,1.0996 0.33203,0.9766 0.23828,1.3945 a 6.2189002,6.2189002 0 0 0 7.17383,5.0859 6.2189002,6.2189002 0 0 0 5.08593,-7.1757 l -0.40429,-2.3731 -0.94336,-2.7754 -1.34375,-2.6211 -1.69336,-2.459 -2.00195,-2.3046 -2.28321,-2.1661 -2.55468,-2.0449 -2.81055,-1.9375 -3.060549,-1.8379 -3.308594,-1.7461 -3.544921,-1.6582 -3.775391,-1.5703 -4,-1.4844 -4.214844,-1.3964 -4.417969,-1.3086 -4.609375,-1.2168 -4.789062,-1.125 -4.957031,-1.0313 -5.111328,-0.9336 -5.248047,-0.834 -5.373047,-0.7324 -5.480469,-0.6308 -5.570312,-0.5274 -5.648438,-0.4199 -5.705078,-0.3145 z"
           id="path10" /><path
           style="baseline-shift:baseline;display:inline;overflow:visible;opacity:1;vector-effect:none;stroke-dasharray:25.507, 12.7535;enable-background:accumulate;stop-color:#000000;stop-opacity:1"
           d="m 147.85937,969.53125 -4.3164,0.002 -6.5625,0.11133 -6.54102,0.2207 -6.5,0.32618 -1.74609,0.11718 0.35547,5.30078 1.70312,-0.11328 6.41016,-0.32226 6.45312,-0.2168 6.47461,-0.10937 4.27344,-0.002 z m 12.8379,0.23242 -0.17188,5.31055 2.48047,0.0801 6.41601,0.31445 6.35938,0.41992 6.28711,0.52344 3.7207,0.375 0.53321,-5.28711 -3.76758,-0.38086 -6.37891,-0.5293 -6.44922,-0.42578 -6.5039,-0.31836 z m -51.30664,1.57422 -4.5586,0.4668 -6.189452,0.74414 -6.074219,0.8457 -5.943359,0.94531 -2.699219,0.48438 0.939453,5.23047 2.646485,-0.47657 5.839843,-0.92773 5.97461,-0.83203 6.091798,-0.73242 4.51172,-0.46094 z m 89.68749,1.70898 -0.72656,5.26368 2.00196,0.27734 5.85156,0.92188 5.70508,1.01562 5.54296,1.10742 5.36915,1.19531 0.32421,0.0801 1.27735,-5.1582 -0.38477,-0.0957 -5.48828,-1.22071 -5.6543,-1.13086 -5.8125,-1.03515 -5.95312,-0.9375 z m -127.761714,4.3379 -1.611328,0.36132 -5.291016,1.31836 -5.095703,1.40625 -4.890625,1.48828 -4.669922,1.57032 -3.220703,1.19531 1.84961,4.98242 3.140625,-1.16601 4.521484,-1.52149 4.75,-1.44531 4.964844,-1.36914 5.166015,-1.28711 1.550782,-0.34766 z m 165.552734,3.71289 -1.53906,5.08593 2.41797,0.73047 4.53711,1.51563 4.30078,1.58398 4.04883,1.64844 3.78906,1.70703 3.51758,1.75977 0.50781,0.2832 2.58984,-4.64063 -0.61328,-0.34179 -3.7207,-1.86133 -3.97656,-1.79102 -4.22266,-1.71875 -4.46094,-1.64453 -4.6875,-1.56445 z m -202.265624,8.88476 -1.158204,0.58399 -3.439453,1.93554 -3.167968,2 -2.892579,2.06641 -2.607421,2.13086 -2.316407,2.19728 -2.017578,2.2656 -1.697265,2.3184 -1.025391,1.7168 4.5625,2.7226 0.896484,-1.5019 1.400391,-1.9102 1.699219,-1.9082 2.013672,-1.9082 2.322265,-1.8984 2.626953,-1.87894 2.927735,-1.84765 3.214843,-1.8086 1.048829,-0.52929 z m 237.417964,8.08399 -3.34375,4.13089 0.44141,0.3574 2.03516,1.9082 1.72265,1.9082 1.41797,1.9062 0.99414,1.6524 4.55274,-2.7422 -1.12696,-1.873 -1.72461,-2.3165 -2.03906,-2.2597 -2.33789,-2.19338 z"
           id="path11" /><path
           style="baseline-shift:baseline;display:inline;overflow:visible;opacity:1;vector-effect:none;stroke-dasharray:25.507, 12.7535;enable-background:accumulate;stop-color:#000000;stop-opacity:1"
           d="m 144.40625,766.35937 v 25.50586 h 5.31445 v -25.50586 z m 0,38.25977 v 25.50781 h 5.31445 v -25.50781 z m 0,38.25977 v 25.50781 h 5.31445 v -25.50781 z m 0,38.26171 v 25.50586 h 5.31445 v -25.50586 z m 0,38.25977 v 25.50781 h 5.31445 v -25.50781 z m 0,38.26172 v 25.50586 h 5.31445 v -25.50586 z m 0,38.25976 v 20.44923 h 5.31445 v -20.44923 z"
           id="path12" /><path
           style="baseline-shift:baseline;display:inline;overflow:visible;opacity:1;vector-effect:none;stroke-dasharray:25.507, 12.7535;enable-background:accumulate;stop-color:#000000;stop-opacity:1"
           d="m 147.06445,1013.7148 v 5.3145 h 25.50586 v -5.3145 z m 38.25977,0 v 5.3145 h 25.50781 v -5.3145 z m 38.26172,0 v 5.3145 h 25.50586 v -5.3145 z m 38.25976,0 v 5.3145 h 17.8086 v -5.3145 z"
           id="path13-1" /><path
           style="baseline-shift:baseline;display:inline;overflow:visible;opacity:1;vector-effect:none;stroke-dasharray:25.507, 12.7535;enable-background:accumulate;stop-color:#000000;stop-opacity:1"
           d="m 144.72461,1015.1113 -12.09961,22.4551 4.67773,2.5195 12.09961,-22.4531 z m -18.15039,33.6817 -5.28711,9.8125 4.67773,2.5215 5.28907,-9.8125 z"
           id="path14-2" /></g><g
         inkscape:label="FORMAT"
         id="g15" /></g><path
       d="m 70.055022,157.71574 v -9.1581 h -3.527775 v -0.71967 h 7.873994 v 0.71967 h -3.527775 v 9.1581 z m 13.828878,0 h -0.917222 l -2.328331,-3.25966 c -0.141111,0.0188 -0.286926,0.0329 -0.437444,0.0423 -0.150519,0.009 -0.305741,0.0141 -0.465667,0.0141 H 76.95535 v 3.20322 h -0.804333 v -3.90877 h 3.584219 c 1.034814,0 1.820332,-0.23048 2.356554,-0.69144 0.545629,-0.46097 0.818444,-1.10538 0.818444,-1.93323 0,-0.83725 -0.272815,-1.48166 -0.818444,-1.93322 -0.536222,-0.46096 -1.32174,-0.69144 -2.356554,-0.69144 h -3.584219 v -0.71967 h 3.584219 c 0.620889,0 1.175925,0.0753 1.66511,0.22578 0.498593,0.15052 0.917222,0.37159 1.255888,0.66322 0.348074,0.28223 0.611481,0.6303 0.790222,1.04422 0.188148,0.41393 0.282222,0.8843 0.282222,1.41111 0,0.79023 -0.202259,1.44875 -0.606777,1.97556 -0.395111,0.52681 -0.959556,0.89841 -1.693333,1.11478 z m 6.335893,0.0706 c -1.232369,0 -2.206035,-0.35748 -2.920997,-1.07244 -0.705555,-0.71497 -1.058333,-1.778 -1.058333,-3.18911 v -5.68678 h 0.804333 v 5.64444 c 0,1.22297 0.272815,2.12608 0.818444,2.70934 0.555037,0.57385 1.345258,0.86077 2.370665,0.86077 1.015999,0 1.796813,-0.28692 2.342442,-0.86077 0.555037,-0.58326 0.832555,-1.48637 0.832555,-2.70934 v -5.64444 h 0.804333 v 5.68678 c 0,1.41111 -0.357481,2.47414 -1.072444,3.18911 -0.705555,0.71496 -1.679221,1.07244 -2.920998,1.07244 z m 7.281326,-5.44689 h 6.646331 v 0.71967 h -6.646331 z m 0,-4.65666 h 6.646331 v 0.71967 h -6.646331 z m 0,10.03299 h 6.646331 v -0.71966 h -6.646331 z m 9.440341,-5.03766 h 6.02543 v 0.71967 h -5.2211 v 4.31799 h -0.80433 z m 0,-4.84011 h 6.64632 v 0.71967 h -6.64632 z m 13.01042,9.94833 c -0.73378,0 -1.41582,-0.127 -2.04611,-0.381 -0.6303,-0.254 -1.17593,-0.60207 -1.63689,-1.04422 -0.46096,-0.44215 -0.82315,-0.96896 -1.08656,-1.58044 -0.25399,-0.62089 -0.38099,-1.28882 -0.38099,-2.00378 0,-0.72437 0.127,-1.3923 0.38099,-2.00378 0.26341,-0.61148 0.6256,-1.13829 1.08656,-1.58044 0.46096,-0.44215 1.00659,-0.79022 1.63689,-1.04422 0.63029,-0.254 1.31233,-0.381 2.04611,-0.381 0.73377,0 1.41581,0.127 2.04611,0.381 0.63029,0.254 1.17592,0.60207 1.63688,1.04422 0.46097,0.44215 0.81845,0.96896 1.07245,1.58044 0.26341,0.61148 0.39511,1.27941 0.39511,2.00378 0,0.71496 -0.1317,1.38289 -0.39511,2.00378 -0.254,0.61148 -0.61148,1.13829 -1.07245,1.58044 -0.46096,0.44215 -1.00659,0.79022 -1.63688,1.04422 -0.6303,0.254 -1.31234,0.381 -2.04611,0.381 z m 0,-0.73378 c 0.62089,0 1.19474,-0.10818 1.72155,-0.32455 0.52681,-0.21637 0.98307,-0.51271 1.36878,-0.889 0.39511,-0.38571 0.70085,-0.83726 0.91722,-1.35467 0.21637,-0.52681 0.32455,-1.09596 0.32455,-1.70744 0,-0.61148 -0.10818,-1.17592 -0.32455,-1.69333 -0.21637,-0.52681 -0.52211,-0.97837 -0.91722,-1.35467 -0.38571,-0.3857 -0.84197,-0.68674 -1.36878,-0.90311 -0.52681,-0.21637 -1.10066,-0.32455 -1.72155,-0.32455 -0.62089,0 -1.19475,0.10818 -1.72156,0.32455 -0.52681,0.21637 -0.98778,0.51741 -1.38289,0.90311 -0.3857,0.3763 -0.68674,0.82786 -0.90311,1.35467 -0.21637,0.51741 -0.32455,1.08185 -0.32455,1.69333 0,0.61148 0.10818,1.18063 0.32455,1.70744 0.21637,0.51741 0.51741,0.96896 0.90311,1.35467 0.39511,0.37629 0.85608,0.67263 1.38289,0.889 0.52681,0.21637 1.10067,0.32455 1.72156,0.32455 z m 15.33875,0.66322 h -0.91722 l -2.32833,-3.25966 c -0.14111,0.0188 -0.28693,0.0329 -0.43744,0.0423 -0.15052,0.009 -0.30574,0.0141 -0.46567,0.0141 h -2.77989 v 3.20322 h -0.80433 v -3.90877 h 3.58422 c 1.03481,0 1.82033,-0.23048 2.35655,-0.69144 0.54563,-0.46097 0.81845,-1.10538 0.81845,-1.93323 0,-0.83725 -0.27282,-1.48166 -0.81845,-1.93322 -0.53622,-0.46096 -1.32174,-0.69144 -2.35655,-0.69144 h -3.58422 v -0.71967 h 3.58422 c 0.62089,0 1.17592,0.0753 1.66511,0.22578 0.49859,0.15052 0.91722,0.37159 1.25589,0.66322 0.34807,0.28223 0.61148,0.6303 0.79022,1.04422 0.18815,0.41393 0.28222,0.8843 0.28222,1.41111 0,0.79023 -0.20226,1.44875 -0.60678,1.97556 -0.39511,0.52681 -0.95955,0.89841 -1.69333,1.11478 z m 3.23145,0 h -0.79022 v -9.87777 h 0.67733 l 4.38856,7.54944 4.36033,-7.54944 h 0.66322 l 0.0141,9.87777 h -0.79022 l -0.0141,-8.29732 -4.04989,6.9991 h -0.39511 l -4.064,-6.95677 z"
       id="text18"
       style="font-weight:300;font-size:14.1111px;line-height:27.5px;font-family:Montserrat-Alt1;-inkscape-font-specification:'Montserrat-Alt1, Light';letter-spacing:0px;word-spacing:0px;stroke-width:0.173567"
       aria-label="TRUEFORMDrafting"
       sodipodi:nodetypes="ccccccccccccssccccscscsccscccscccscsccscscsccscscccccccccccccccccccccccccccssscscssssscscsssssccsccsssccsccsscccssccccscscsccscccsccccccccccccccccc" /></g></svg>
